<?xml version="1.0" standalone="no"?>
<!DOCTYPE svg PUBLIC "-//W3C//DTD SVG 20010904//EN"
 "http://www.w3.org/TR/2001/REC-SVG-20010904/DTD/svg10.dtd">
<svg version="1.0" xmlns="http://www.w3.org/2000/svg"
 width="700.000000pt" height="700.000000pt" viewBox="0 0 700.000000 700.000000"
 preserveAspectRatio="xMidYMid meet">
<metadata>
Created by potrace 1.14, written by Peter Selinger 2001-2017
</metadata>
<g transform="translate(0.000000,700.000000) scale(0.100000,-0.100000)"
fill="#000000" stroke="none">
<path d="M2757 6414 c-1 -1 -103 -5 -227 -8 -124 -3 -252 -8 -285 -11 -183
-13 -209 -15 -339 -30 -90 -11 -259 -46 -364 -76 -236 -67 -442 -194 -587
-360 -46 -52 -85 -107 -85 -117 0 -6 -4 -12 -9 -14 -14 -5 -116 -213 -126
-258 -2 -8 -12 -42 -23 -76 -23 -69 -56 -229 -77 -374 -7 -50 -18 -174 -31
-335 -25 -336 -25 -2162 1 -2515 9 -132 24 -293 31 -330 2 -14 7 -45 10 -70 3
-25 10 -63 14 -85 5 -22 12 -56 15 -75 12 -68 60 -227 92 -300 168 -394 469
-617 963 -714 172 -33 236 -41 520 -62 342 -25 2176 -25 2505 0 173 14 274 23
325 31 14 2 45 7 70 10 269 35 518 124 695 245 86 60 216 191 274 278 126 187
210 443 247 754 3 29 7 64 9 78 4 28 15 159 20 235 26 371 26 2093 0 2525 -7
126 -29 332 -40 390 -2 13 -7 42 -11 65 -19 137 -79 342 -131 450 -157 332
-416 538 -803 638 -52 14 -111 28 -130 31 -19 3 -44 8 -55 10 -11 2 -42 7 -68
10 -27 4 -56 9 -66 11 -9 2 -48 6 -86 10 -39 3 -86 8 -105 10 -36 4 -155 11
-335 21 -92 5 -1802 13 -1808 8z m111 -1553 c171 -87 153 -344 -28 -399 -19
-6 -69 -13 -110 -17 -41 -3 -93 -7 -115 -10 -106 -14 -303 -93 -379 -154 -21
-17 -42 -31 -46 -31 -3 0 -39 -32 -78 -72 -134 -134 -220 -285 -264 -468 -28
-114 -29 -293 -3 -405 23 -98 22 -94 25 -100 1 -3 3 -8 5 -12 1 -5 6 -19 12
-33 6 -14 18 -43 27 -64 27 -64 120 -197 181 -259 121 -122 297 -223 448 -257
89 -19 115 -22 211 -25 396 -9 755 233 901 606 33 83 55 194 62 304 6 111 34
170 100 214 112 74 254 37 315 -83 35 -68 27 -250 -18 -429 -125 -501 -514
-887 -1015 -1011 -181 -44 -338 -52 -519 -25 -141 21 -146 22 -245 55 -442
146 -794 525 -905 970 -54 221 -58 366 -16 625 8 53 70 238 102 306 116 245
310 461 540 600 157 95 385 172 559 189 39 3 71 7 73 9 12 11 147 -7 180 -24z
m1517 15 c529 -61 976 -421 1154 -929 17 -48 33 -98 35 -110 21 -101 26 -134
32 -189 13 -113 7 -281 -11 -379 -29 -150 -66 -262 -130 -389 -38 -76 -110
-194 -139 -227 -6 -7 -33 -38 -61 -70 -196 -228 -512 -404 -805 -449 -228 -34
-322 -21 -391 55 -62 69 -75 152 -35 237 40 87 102 120 236 129 91 5 112 8
199 30 264 65 496 259 621 521 93 194 109 445 43 659 -95 305 -355 551 -665
631 -79 21 -101 24 -213 28 -310 13 -603 -131 -791 -387 -66 -89 -133 -228
-149 -310 -3 -10 -7 -27 -10 -37 -10 -32 -14 -58 -20 -148 -7 -93 -31 -162
-68 -197 -84 -78 -222 -81 -300 -7 -58 54 -71 96 -70 212 1 90 8 138 39 286
41 200 189 464 356 634 224 229 542 382 843 407 39 3 71 6 72 7 5 4 177 -2
228 -8z"/>
</g>
</svg>
